<?xml version="1.0" encoding="UTF-8"?><svg xmlns="http://www.w3.org/2000/svg" xmlns:xlink="http://www.w3.org/1999/xlink" height="231.0" preserveAspectRatio="xMidYMid meet" version="1.0" viewBox="0.0 0.0 231.0 231.0" width="231.0" zoomAndPan="magnify"><g id="change1_1"><path d="M115.5,0C51.7,0,0,51.7,0,115.5c0,63.8,51.7,115.5,115.5,115.5c63.8,0,115.5-51.7,115.5-115.5C230.9,51.7,179.2,0,115.5,0z M182.9,89.5c0,0,2,44.2-31.6,71.6C101,202,46.7,168.8,46.7,168.8s13.2,0.2,24.9-2.9c11.6-3.1,20-10.7,20-10.7s-12.7-2.6-19.3-7.4 c-6.6-4.8-9.2-14-9.2-14s4.4,0.4,7.1,0.3c2.8-0.1,6.1-1.4,6.1-1.4s-9.1-1.1-17.6-10.6c-6.7-7.5-6.2-20-6.2-20s4,2.4,6.1,2.9 c2.1,0.6,6.2,0.6,6.2,0.6s-8-4.7-11.5-17c-3.5-12.2,3.2-24.6,3.2-24.6S68.4,78.4,86,87.6c17.6,9.2,34.2,8.9,34.2,8.9 s-2.4-7.3,1.8-18.1c4.2-10.8,13.7-18.6,28.2-19.7c14.5-1.2,23.8,9.8,23.8,9.8s4.5-0.8,9.6-2.7c5.1-1.8,10.2-4.2,10.2-4.2 s-1.8,5.5-5.3,9.8c-3.5,4.3-7.4,6.9-7.4,6.9s4.6-0.3,9.2-1.6c4.6-1.3,7.1-2.6,7.1-2.6C192.1,82.9,182.9,89.5,182.9,89.5z"/></g></svg>