<?xml version="1.0" encoding="UTF-8"?><svg xmlns="http://www.w3.org/2000/svg" xmlns:xlink="http://www.w3.org/1999/xlink" height="231.0" preserveAspectRatio="xMidYMid meet" version="1.0" viewBox="0.0 0.0 231.0 231.0" width="231.0" zoomAndPan="magnify"><g id="change1_1"><path d="M115.5,0C51.7,0,0,51.7,0,115.5c0,63.8,51.7,115.5,115.5,115.5c63.8,0,115.5-51.7,115.5-115.5C230.9,51.7,179.2,0,115.5,0z M177.7,70.9l-22.5,105.5c-1.1,5.3-7.3,7.6-11.6,4.4L90.2,141l59-53.3c0,0,4-3.3,2.9-4.3c-1.2-1.2-5.6,1.4-7.8,2.9 C142,88,72,132.2,72,132.2l-35.5-11c-4-1.2-4-6.7,1.8-9.1l130.4-50.2C174.4,59.1,178.9,65.5,177.7,70.9z"/></g></svg>